<?xml version="1.0" encoding="utf-8"?>
<!-- Generator: Adobe Illustrator 16.0.0, SVG Export Plug-In . SVG Version: 6.00 Build 0)  -->
<!DOCTYPE svg PUBLIC "-//W3C//DTD SVG 1.1//EN" "http://www.w3.org/Graphics/SVG/1.1/DTD/svg11.dtd">
<svg version="1.1" id="Layer_1" xmlns="http://www.w3.org/2000/svg" xmlns:xlink="http://www.w3.org/1999/xlink" x="0px" y="0px"
	 width="226.969px" height="115px" viewBox="0 0 226.969 115" enable-background="new 0 0 226.969 115" xml:space="preserve">
<g>
	<linearGradient id="SVGID_1_" gradientUnits="userSpaceOnUse" x1="57.3359" y1="115.6377" x2="155.6245" y2="13.8569">
		<stop  offset="0" style="stop-color:#A84B25"/>
		<stop  offset="0.1007" style="stop-color:#BD5326"/>
		<stop  offset="0.2464" style="stop-color:#D65D26"/>
		<stop  offset="0.3858" style="stop-color:#E76426"/>
		<stop  offset="0.511" style="stop-color:#F06825"/>
		<stop  offset="0.6256" style="stop-color:#E66426"/>
		<stop  offset="0.7719" style="stop-color:#D25C26"/>
		<stop  offset="0.9346" style="stop-color:#B55025"/>
		<stop  offset="1" style="stop-color:#A84B25"/>
	</linearGradient>
	<path fill="url(#SVGID_1_)" d="M226.969,57.5c0,31.731-50.803,57.5-113.488,57.5C50.796,115,0,89.23,0,57.5
		C0,25.747,50.796,0,113.48,0C176.166,0,226.969,25.747,226.969,57.5z"/>
	<path fill="none" stroke="#FFFFFF" stroke-width="2" d="M221.914,57.379c0,29.31-48.516,53.071-108.346,53.071
		c-59.857,0-108.371-23.762-108.371-53.071c0-29.308,48.514-53.078,108.371-53.078C173.398,4.301,221.914,28.071,221.914,57.379z"/>
	<g>
		
			<text transform="matrix(0.9858 0 0 1 15.3145 76.2256)" fill="#C25728" font-family="'BodoniMTBlack-Italic'" font-size="64.3373">Casco</text>
	</g>
	<text transform="matrix(0.9858 0 0 1 14.8252 74.7676)" fill="#FFFFFF" font-family="'BodoniMTBlack-Italic'" font-size="64.3373">Casco</text>
</g>
</svg>
